<?xml version="1.0" standalone="no"?>
<!DOCTYPE svg PUBLIC "-//W3C//DTD SVG 20010904//EN"
 "http://www.w3.org/TR/2001/REC-SVG-20010904/DTD/svg10.dtd">
<svg version="1.0" xmlns="http://www.w3.org/2000/svg"
 width="512.000000pt" height="512.000000pt" viewBox="0 0 512.000000 512.000000"
 preserveAspectRatio="xMidYMid meet">

<g transform="translate(0.000000,512.000000) scale(0.100000,-0.100000)"
fill="#000000" stroke="none">
<path d="M803 5105 c-136 -37 -239 -123 -301 -252 l-37 -78 -3 -2180 c-2
-1531 1 -2196 8 -2232 36 -173 188 -320 364 -352 41 -8 637 -11 1943 -11
l1883 0 0 130 0 130 -1895 0 c-2061 0 -1929 -4 -1988 56 -44 44 -60 83 -60
144 0 61 17 101 60 142 65 62 -80 58 1993 58 l1890 0 0 2230 0 2230 -1275 0
-1275 0 0 -497 0 -498 -168 168 -167 168 -163 -165 c-89 -91 -165 -166 -167
-166 -3 0 -5 223 -5 495 l0 495 -292 -1 c-219 0 -306 -4 -345 -14z m2839
-1357 c56 -16 121 -78 147 -138 21 -50 22 -55 19 -603 l-3 -552 -28 -47 c-34
-58 -81 -95 -143 -114 -72 -21 -1847 -21 -1920 1 -65 19 -116 63 -148 127
l-26 52 0 539 c0 395 3 551 12 581 15 51 99 137 148 153 51 16 1888 17 1942 1z"/>
<path d="M1901 3282 c-33 -26 -31 -79 3 -109 l27 -23 743 0 c737 0 744 0 770
21 33 26 36 79 6 109 -20 20 -33 20 -774 20 -704 0 -755 -1 -775 -18z"/>
<path d="M1901 2872 c-33 -26 -31 -79 3 -109 l27 -23 743 0 c737 0 744 0 770
21 33 26 36 79 6 109 -20 20 -33 20 -774 20 -704 0 -755 -1 -775 -18z"/>
</g>
</svg>
